<svg xmlns="http://www.w3.org/2000/svg" xmlns:xlink="http://www.w3.org/1999/xlink" version="1.2" baseProfile="tiny" x="0px" y="0px" viewBox="0 0 100 125" xml:space="preserve"><path d="M41.34,55c0.463,0.802,1.303,1.25,2.167,1.25c0.424,0,0.854-0.107,1.248-0.335L47.5,54.33v3.17c0,1.381,1.119,2.5,2.5,2.5  s2.5-1.119,2.5-2.5v-3.17l2.745,1.585c0.394,0.228,0.824,0.335,1.248,0.335c0.864,0,1.705-0.448,2.167-1.25  c0.69-1.195,0.281-2.725-0.915-3.415L55,50l2.745-1.585c1.196-0.69,1.605-2.22,0.915-3.415c-0.69-1.195-2.219-1.607-3.415-0.915  L52.5,45.67V42.5c0-1.381-1.119-2.5-2.5-2.5s-2.5,1.119-2.5,2.5v3.17l-2.745-1.585c-1.196-0.692-2.726-0.28-3.415,0.915  c-0.69,1.195-0.281,2.725,0.915,3.415L45,50l-2.745,1.585C41.059,52.275,40.649,53.805,41.34,55z"/><path d="M16.34,55c0.463,0.802,1.303,1.25,2.167,1.25c0.424,0,0.854-0.107,1.248-0.335L22.5,54.33v3.17c0,1.381,1.119,2.5,2.5,2.5  s2.5-1.119,2.5-2.5v-3.17l2.745,1.585c0.394,0.228,0.824,0.335,1.248,0.335c0.864,0,1.705-0.448,2.167-1.25  c0.69-1.195,0.281-2.725-0.915-3.415L30,50l2.745-1.585c1.196-0.69,1.605-2.22,0.915-3.415s-2.22-1.607-3.415-0.915L27.5,45.67V42.5  c0-1.381-1.119-2.5-2.5-2.5s-2.5,1.119-2.5,2.5v3.17l-2.745-1.585c-1.197-0.692-2.726-0.28-3.415,0.915  c-0.69,1.195-0.281,2.725,0.915,3.415L20,50l-2.745,1.585C16.059,52.275,15.649,53.805,16.34,55z"/><path d="M66.34,55c0.463,0.802,1.303,1.25,2.167,1.25c0.424,0,0.854-0.107,1.248-0.335L72.5,54.33v3.17c0,1.381,1.119,2.5,2.5,2.5  s2.5-1.119,2.5-2.5v-3.17l2.745,1.585c0.394,0.228,0.824,0.335,1.248,0.335c0.864,0,1.705-0.448,2.167-1.25  c0.69-1.195,0.281-2.725-0.915-3.415L80,50l2.745-1.585c1.196-0.69,1.605-2.22,0.915-3.415c-0.69-1.195-2.22-1.607-3.415-0.915  L77.5,45.67V42.5c0-1.381-1.119-2.5-2.5-2.5s-2.5,1.119-2.5,2.5v3.17l-2.745-1.585c-1.197-0.692-2.726-0.28-3.415,0.915  c-0.69,1.195-0.281,2.725,0.915,3.415L70,50l-2.745,1.585C66.059,52.275,65.649,53.805,66.34,55z"/><path d="M50,5c-10.108,0-19.7,3.321-27.552,9.429V7.448c0-1.381-1.119-2.5-2.5-2.5s-2.5,1.119-2.5,2.5v12.5  c0,0.057,0.012,0.112,0.016,0.169c0.006,0.082,0.01,0.163,0.023,0.243c0.004,0.026,0.005,0.052,0.01,0.077  c0.011,0.058,0.033,0.111,0.049,0.167c0.02,0.073,0.039,0.147,0.065,0.218c0.01,0.027,0.017,0.055,0.028,0.082  c0.023,0.055,0.055,0.105,0.082,0.158c0.033,0.067,0.066,0.133,0.105,0.196c0.015,0.025,0.026,0.051,0.043,0.076  c0.031,0.047,0.07,0.086,0.104,0.131c0.049,0.064,0.098,0.127,0.153,0.186c0.053,0.057,0.111,0.109,0.17,0.161  c0.062,0.055,0.123,0.108,0.191,0.157c0.026,0.019,0.049,0.041,0.076,0.059c0.044,0.03,0.093,0.049,0.138,0.076  c0.066,0.038,0.131,0.076,0.201,0.108c0.031,0.014,0.059,0.032,0.091,0.045c0.057,0.024,0.117,0.036,0.175,0.056  c0.046,0.015,0.087,0.038,0.134,0.051l12.074,3.235c0.217,0.058,0.434,0.086,0.648,0.086c1.104,0,2.114-0.737,2.414-1.854  c0.357-1.334-0.434-2.705-1.768-3.063l-7.607-2.038C32.123,13.078,40.823,10,50,10c22.056,0,40,17.944,40,40S72.056,90,50,90  S10,72.056,10,50c0-1.381-1.119-2.5-2.5-2.5S5,48.619,5,50c0,24.813,20.187,45,45,45s45-20.187,45-45S74.813,5,50,5z"/><text x="0" y="115" fill="#000000" font-size="5px" font-weight="bold" font-family="'Helvetica Neue', Helvetica, Arial-Unicode, Arial, Sans-serif">Created by Arthur Shlain</text><text x="0" y="120" fill="#000000" font-size="5px" font-weight="bold" font-family="'Helvetica Neue', Helvetica, Arial-Unicode, Arial, Sans-serif">from the Noun Project</text></svg>