<svg xmlns="http://www.w3.org/2000/svg" xmlns:xlink="http://www.w3.org/1999/xlink" version="1.2" baseProfile="tiny" x="0px" y="0px" viewBox="0 0 100 125" xml:space="preserve"><path d="M77.5,45c-0.851,0-1.681,0.082-2.5,0.2V17.5C75,9.294,57.393,5,40,5S5,9.294,5,17.5v60C5,85.706,22.607,90,40,90  c1.67,0,3.342-0.04,5-0.119V92.5c0,1.381,1.119,2.5,2.5,2.5h15c1.381,0,2.5-1.119,2.5-2.5V90h2.5c1.381,0,2.5-1.119,2.5-2.5V85h2.5  c1.381,0,2.5-1.119,2.5-2.5v-2.684C75.83,79.938,76.664,80,77.5,80C87.149,80,95,72.149,95,62.5S87.149,45,77.5,45z M77.5,75  c-1.399,0-2.8-0.245-4.165-0.729c-0.766-0.272-1.614-0.153-2.278,0.314C70.394,75.055,70,75.816,70,76.628V80h-2.5  c-1.381,0-2.5,1.119-2.5,2.5V85h-2.5c-1.381,0-2.5,1.119-2.5,2.5V90H50v-3.965l15.603-15.604c0.736-0.735,0.939-1.85,0.511-2.797  C65.375,66,65,64.272,65,62.5C65,55.607,70.607,50,77.5,50S90,55.607,90,62.5S84.393,75,77.5,75z M60,62.5  c0,0.095,0.01,0.188,0.011,0.282C54.974,64.06,48.187,65,40,65c-18.61,0-30-4.855-30-7.5V44.259C16.46,48.046,28.275,50,40,50  s23.54-1.954,30-5.741v2.453C64.098,49.528,60,55.537,60,62.5z M70,37.5c0,2.645-11.39,7.5-30,7.5s-30-4.855-30-7.5V24.259  C16.46,28.046,28.275,30,40,30s23.54-1.954,30-5.741V37.5z M40,10c18.61,0,30,4.855,30,7.5S58.61,25,40,25s-30-4.855-30-7.5  S21.39,10,40,10z M10,77.5V64.259C16.46,68.046,28.275,70,40,70c7.35,0,14.733-0.77,20.815-2.275  c0.034,0.109,0.059,0.219,0.096,0.327l-15.178,15.18c-0.44,0.44-0.69,1.028-0.72,1.647C43.406,84.958,41.735,85,40,85  C21.39,85,10,80.145,10,77.5z"/><path d="M80,55c-2.757,0-5,2.243-5,5s2.243,5,5,5s5-2.243,5-5S82.757,55,80,55z"/><text x="0" y="115" fill="#000000" font-size="5px" font-weight="bold" font-family="'Helvetica Neue', Helvetica, Arial-Unicode, Arial, Sans-serif">Created by Arthur Shlain</text><text x="0" y="120" fill="#000000" font-size="5px" font-weight="bold" font-family="'Helvetica Neue', Helvetica, Arial-Unicode, Arial, Sans-serif">from the Noun Project</text></svg>