<?xml version="1.0" encoding="UTF-8" standalone="no"?>
<svg
   xmlns:dc="http://purl.org/dc/elements/1.1/"
   xmlns:cc="http://creativecommons.org/ns#"
   xmlns:rdf="http://www.w3.org/1999/02/22-rdf-syntax-ns#"
   xmlns:svg="http://www.w3.org/2000/svg"
   xmlns="http://www.w3.org/2000/svg"
   xmlns:sodipodi="http://sodipodi.sourceforge.net/DTD/sodipodi-0.dtd"
   xmlns:inkscape="http://www.inkscape.org/namespaces/inkscape"
   version="1.2"
   x="0px"
   y="0px"
   viewBox="0 0 90 90.052002"
   xml:space="preserve"
   id="svg2"
   inkscape:version="0.91 r13725"
   sodipodi:docname="gen-password.svg"
   width="90"
   height="90.052002"><metadata
     id="metadata20"><rdf:RDF><cc:Work
         rdf:about=""><dc:format>image/svg+xml</dc:format><dc:type
           rdf:resource="http://purl.org/dc/dcmitype/StillImage" /><dc:title></dc:title></cc:Work></rdf:RDF></metadata><defs
     id="defs18" /><sodipodi:namedview
     pagecolor="#ffffff"
     bordercolor="#666666"
     borderopacity="1"
     objecttolerance="10"
     gridtolerance="10"
     guidetolerance="10"
     inkscape:pageopacity="0"
     inkscape:pageshadow="2"
     inkscape:window-width="2560"
     inkscape:window-height="1377"
     id="namedview16"
     showgrid="false"
     fit-margin-top="0"
     fit-margin-left="0"
     fit-margin-right="0"
     fit-margin-bottom="0"
     inkscape:zoom="5.3400704"
     inkscape:cx="42.028276"
     inkscape:cy="44.581632"
     inkscape:window-x="-8"
     inkscape:window-y="-8"
     inkscape:window-maximized="1"
     inkscape:current-layer="svg2" /><path
     d="m 36.34,50.052 c 0.463,0.802 1.303,1.25 2.167,1.25 0.424,0 0.854,-0.107 1.248,-0.335 l 2.745,-1.585 0,3.17 c 0,1.381 1.119,2.5 2.5,2.5 1.381,0 2.5,-1.119 2.5,-2.5 l 0,-3.17 2.745,1.585 c 0.394,0.228 0.824,0.335 1.248,0.335 0.864,0 1.705,-0.448 2.167,-1.25 0.69,-1.195 0.281,-2.725 -0.915,-3.415 L 50,45.052 52.745,43.467 c 1.196,-0.69 1.605,-2.22 0.915,-3.415 -0.69,-1.195 -2.219,-1.607 -3.415,-0.915 l -2.745,1.585 0,-3.17 c 0,-1.381 -1.119,-2.5 -2.5,-2.5 -1.381,0 -2.5,1.119 -2.5,2.5 l 0,3.17 -2.745,-1.585 c -1.196,-0.692 -2.726,-0.28 -3.415,0.915 -0.69,1.195 -0.281,2.725 0.915,3.415 L 40,45.052 37.255,46.637 c -1.196,0.69 -1.606,2.22 -0.915,3.415 z"
     id="path4"
     inkscape:connector-curvature="0" /><path
     d="m 11.34,50.052 c 0.463,0.802 1.303,1.25 2.167,1.25 0.424,0 0.854,-0.107 1.248,-0.335 l 2.745,-1.585 0,3.17 c 0,1.381 1.119,2.5 2.5,2.5 1.381,0 2.5,-1.119 2.5,-2.5 l 0,-3.17 2.745,1.585 c 0.394,0.228 0.824,0.335 1.248,0.335 0.864,0 1.705,-0.448 2.167,-1.25 0.69,-1.195 0.281,-2.725 -0.915,-3.415 L 25,45.052 27.745,43.467 c 1.196,-0.69 1.605,-2.22 0.915,-3.415 -0.69,-1.195 -2.22,-1.607 -3.415,-0.915 l -2.745,1.585 0,-3.17 c 0,-1.381 -1.119,-2.5 -2.5,-2.5 -1.381,0 -2.5,1.119 -2.5,2.5 l 0,3.17 -2.745,-1.585 c -1.197,-0.692 -2.726,-0.28 -3.415,0.915 -0.69,1.195 -0.281,2.725 0.915,3.415 L 15,45.052 12.255,46.637 c -1.196,0.69 -1.606,2.22 -0.915,3.415 z"
     id="path6"
     inkscape:connector-curvature="0" /><path
     d="m 61.34,50.052 c 0.463,0.802 1.303,1.25 2.167,1.25 0.424,0 0.854,-0.107 1.248,-0.335 l 2.745,-1.585 0,3.17 c 0,1.381 1.119,2.5 2.5,2.5 1.381,0 2.5,-1.119 2.5,-2.5 l 0,-3.17 2.745,1.585 c 0.394,0.228 0.824,0.335 1.248,0.335 0.864,0 1.705,-0.448 2.167,-1.25 0.69,-1.195 0.281,-2.725 -0.915,-3.415 L 75,45.052 77.745,43.467 c 1.196,-0.69 1.605,-2.22 0.915,-3.415 -0.69,-1.195 -2.22,-1.607 -3.415,-0.915 l -2.745,1.585 0,-3.17 c 0,-1.381 -1.119,-2.5 -2.5,-2.5 -1.381,0 -2.5,1.119 -2.5,2.5 l 0,3.17 -2.745,-1.585 c -1.197,-0.692 -2.726,-0.28 -3.415,0.915 -0.69,1.195 -0.281,2.725 0.915,3.415 L 65,45.052 62.255,46.637 c -1.196,0.69 -1.606,2.22 -0.915,3.415 z"
     id="path8"
     inkscape:connector-curvature="0" /><path
     d="m 45,0.052 c -10.108,0 -19.7,3.321 -27.552,9.429 l 0,-6.981 c 0,-1.381 -1.119,-2.5 -2.5,-2.5 -1.381,0 -2.5,1.119 -2.5,2.5 l 0,12.5 c 0,0.057 0.012,0.112 0.016,0.169 0.006,0.082 0.01,0.163 0.023,0.243 0.004,0.026 0.005,0.052 0.01,0.077 0.011,0.058 0.033,0.111 0.049,0.167 0.02,0.073 0.039,0.147 0.065,0.218 0.01,0.027 0.017,0.055 0.028,0.082 0.023,0.055 0.055,0.105 0.082,0.158 0.033,0.067 0.066,0.133 0.105,0.196 0.015,0.025 0.026,0.051 0.043,0.076 0.031,0.047 0.07,0.086 0.104,0.131 0.049,0.064 0.098,0.127 0.153,0.186 0.053,0.057 0.111,0.109 0.17,0.161 0.062,0.055 0.123,0.108 0.191,0.157 0.026,0.019 0.049,0.041 0.076,0.059 0.044,0.03 0.093,0.049 0.138,0.076 0.066,0.038 0.131,0.076 0.201,0.108 0.031,0.014 0.059,0.032 0.091,0.045 0.057,0.024 0.117,0.036 0.175,0.056 0.046,0.015 0.087,0.038 0.134,0.051 l 12.074,3.235 c 0.217,0.058 0.434,0.086 0.648,0.086 1.104,0 2.114,-0.737 2.414,-1.854 0.357,-1.334 -0.434,-2.705 -1.768,-3.063 L 20.063,13.782 C 27.123,8.13 35.823,5.052 45,5.052 c 22.056,0 40,17.944 40,40 0,22.056 -17.944,40 -40,40 -22.056,0 -40,-17.944 -40,-40 0,-1.381 -1.119,-2.5 -2.5,-2.5 -1.381,0 -2.5,1.119 -2.5,2.5 0,24.813 20.187,45 45,45 24.813,0 45,-20.187 45,-45 0,-24.813 -20.187,-45 -45,-45 z"
     id="path10"
     inkscape:connector-curvature="0" /></svg>