<?xml version="1.0" encoding="UTF-8" standalone="no"?>
<svg
   xmlns:dc="http://purl.org/dc/elements/1.1/"
   xmlns:cc="http://creativecommons.org/ns#"
   xmlns:rdf="http://www.w3.org/1999/02/22-rdf-syntax-ns#"
   xmlns:svg="http://www.w3.org/2000/svg"
   xmlns="http://www.w3.org/2000/svg"
   xmlns:sodipodi="http://sodipodi.sourceforge.net/DTD/sodipodi-0.dtd"
   xmlns:inkscape="http://www.inkscape.org/namespaces/inkscape"
   version="1.1"
   x="0px"
   y="0px"
   viewBox="0 0 264 264"
   enable-background="new 0 0 512 512"
   xml:space="preserve"
   id="svg2"
   inkscape:version="0.91 r13725"
   sodipodi:docname="import.svg"
   width="264"
   height="264"><metadata
     id="metadata14"><rdf:RDF><cc:Work
         rdf:about=""><dc:format>image/svg+xml</dc:format><dc:type
           rdf:resource="http://purl.org/dc/dcmitype/StillImage" /><dc:title></dc:title></cc:Work></rdf:RDF></metadata><defs
     id="defs12" /><sodipodi:namedview
     pagecolor="#ffffff"
     bordercolor="#666666"
     borderopacity="1"
     objecttolerance="10"
     gridtolerance="10"
     guidetolerance="10"
     inkscape:pageopacity="0"
     inkscape:pageshadow="2"
     inkscape:window-width="2560"
     inkscape:window-height="1377"
     id="namedview10"
     showgrid="false"
     fit-margin-top="10"
     fit-margin-right="10"
     fit-margin-bottom="10"
     fit-margin-left="10"
     inkscape:zoom="2.95"
     inkscape:cx="128.73065"
     inkscape:cy="124.72812"
     inkscape:window-x="-8"
     inkscape:window-y="-8"
     inkscape:window-maximized="1"
     inkscape:current-layer="svg2" /><path
     d="M 106.24593,180.80127 125.22137,199.77735 193,132 125.22137,64.22201 l -18.97544,18.97672 35.24592,35.24593 -131.49185,0 0,27.11068 130.80942,0 -34.56349,35.24593 z M 226.88931,10 37.110687,10 C 22.198729,10 10,22.19873 10,37.11069 l 0,54.22264 27.110687,0 0,-54.22201 189.778623,0 0,189.77863 -189.778623,0 0,-54.22328 -27.110687,0 0,54.22264 C 10,241.80127 22.198729,254 37.110687,254 l 189.778623,0 C 241.80127,254 254,241.80127 254,226.88931 L 254,37.11069 C 254,22.19873 241.80127,10 226.88931,10 Z"
     id="path4"
     inkscape:connector-curvature="0" /></svg>