<?xml version="1.0" encoding="UTF-8" standalone="no"?>
<svg
   xmlns:dc="http://purl.org/dc/elements/1.1/"
   xmlns:cc="http://creativecommons.org/ns#"
   xmlns:rdf="http://www.w3.org/1999/02/22-rdf-syntax-ns#"
   xmlns:svg="http://www.w3.org/2000/svg"
   xmlns="http://www.w3.org/2000/svg"
   xmlns:sodipodi="http://sodipodi.sourceforge.net/DTD/sodipodi-0.dtd"
   xmlns:inkscape="http://www.inkscape.org/namespaces/inkscape"
   version="1.1"
   x="0px"
   y="0px"
   viewBox="0 0 264.76501 264.724"
   enable-background="new 0 0 300 300"
   xml:space="preserve"
   id="svg2"
   inkscape:version="0.91 r13725"
   sodipodi:docname="settings.svg"
   width="264.76501"
   height="264.724"><metadata
     id="metadata14"><rdf:RDF><cc:Work
         rdf:about=""><dc:format>image/svg+xml</dc:format><dc:type
           rdf:resource="http://purl.org/dc/dcmitype/StillImage" /><dc:title></dc:title></cc:Work></rdf:RDF></metadata><defs
     id="defs12" /><sodipodi:namedview
     pagecolor="#ffffff"
     bordercolor="#666666"
     borderopacity="1"
     objecttolerance="10"
     gridtolerance="10"
     guidetolerance="10"
     inkscape:pageopacity="0"
     inkscape:pageshadow="2"
     inkscape:window-width="2560"
     inkscape:window-height="1377"
     id="namedview10"
     showgrid="false"
     fit-margin-top="10"
     fit-margin-right="10"
     fit-margin-bottom="10"
     fit-margin-left="10"
     inkscape:zoom="2.5173333"
     inkscape:cx="95.665874"
     inkscape:cy="-31.820411"
     inkscape:window-x="-8"
     inkscape:window-y="-8"
     inkscape:window-maximized="1"
     inkscape:current-layer="svg2" /><path
     d="m 146.566,27.053 8.955,25.178 c 6.007,1.741 11.779,4.141 17.142,7.117 l 24.15,-11.478 20.055,20.049 -11.484,24.136 c 2.976,5.403 5.382,11.135 7.11,17.169 l 25.191,8.927 0,28.374 -25.191,8.954 c -1.729,6.021 -4.135,11.781 -7.11,17.156 l 11.484,24.136 -20.055,20.062 -24.15,-11.485 c -5.375,2.983 -11.135,5.383 -17.142,7.125 l -8.955,25.178 -28.359,0 -8.962,-25.178 c -6.014,-1.742 -11.773,-4.142 -17.149,-7.125 L 67.947,216.833 47.898,196.771 59.39,172.635 C 56.414,167.245 54,161.5 52.272,155.479 l -25.178,-8.954 0,-28.374 25.178,-8.927 C 54,103.19 56.414,97.444 59.39,92.055 L 47.897,67.919 67.946,47.87 92.095,59.348 c 5.39,-2.976 11.135,-5.375 17.149,-7.117 l 8.962,-25.178 28.36,0 m -14.187,143.936 c 21.324,0 38.617,-17.293 38.617,-38.617 0,-21.324 -17.293,-38.63 -38.617,-38.63 -21.331,0 -38.631,17.306 -38.631,38.63 0,21.324 17.3,38.617 38.631,38.617 M 158.585,10 l -12.026,0 -28.36,0 -12.033,0 -4.046,11.328 -6.185,17.409 c -1.336,0.521 -2.674,1.069 -3.991,1.659 l -16.675,-7.954 -10.875,-5.156 -8.517,8.516 -20.054,20.035 -8.516,8.529 5.162,10.876 7.927,16.703 c -0.577,1.316 -1.125,2.633 -1.639,3.963 l -17.402,6.199 -11.355,4.018 0,12.054 0,28.367 0,12.062 11.355,4.024 17.402,6.192 c 0.514,1.315 1.062,2.66 1.639,3.963 l -7.927,16.689 -5.163,10.881 8.516,8.523 20.056,20.049 8.517,8.503 10.875,-5.157 16.675,-7.933 c 1.323,0.568 2.654,1.117 3.991,1.639 l 6.185,17.416 4.046,11.327 12.04,0 28.359,0 12.026,0 4.046,-11.327 6.185,-17.416 c 1.344,-0.521 2.675,-1.07 3.99,-1.639 l 16.676,7.933 10.875,5.157 8.516,-8.503 20.063,-20.049 8.516,-8.523 -5.17,-10.881 -7.926,-16.689 c 0.576,-1.316 1.124,-2.647 1.646,-3.963 l 17.402,-6.192 11.354,-4.024 0,-12.062 0,-28.367 0,-12.054 -11.354,-4.018 -17.402,-6.199 c -0.521,-1.33 -1.069,-2.661 -1.646,-3.963 l 7.926,-16.703 5.17,-10.875 -8.516,-8.529 -20.064,-20.036 -8.516,-8.516 -10.874,5.156 -16.676,7.954 c -1.322,-0.589 -2.646,-1.138 -3.99,-1.659 L 162.638,21.328 158.585,10 l 0,0 z m -26.206,143.936 c -11.896,0 -21.564,-9.668 -21.564,-21.558 0,-11.89 9.668,-21.571 21.564,-21.571 11.883,0 21.551,9.682 21.551,21.571 0,11.889 -9.661,21.558 -21.551,21.558 l 0,0 z"
     id="path4"
     inkscape:connector-curvature="0" /></svg>