<?xml version="1.0" encoding="UTF-8" standalone="no"?>
<svg
   xmlns:dc="http://purl.org/dc/elements/1.1/"
   xmlns:cc="http://creativecommons.org/ns#"
   xmlns:rdf="http://www.w3.org/1999/02/22-rdf-syntax-ns#"
   xmlns:svg="http://www.w3.org/2000/svg"
   xmlns="http://www.w3.org/2000/svg"
   xmlns:sodipodi="http://sodipodi.sourceforge.net/DTD/sodipodi-0.dtd"
   xmlns:inkscape="http://www.inkscape.org/namespaces/inkscape"
   version="1.2"
   x="0px"
   y="0px"
   viewBox="0 0 110 110"
   xml:space="preserve"
   id="svg4136"
   inkscape:version="0.91 r13725"
   sodipodi:docname="vault.svg"
   width="110"
   height="110"><metadata
     id="metadata4150"><rdf:RDF><cc:Work
         rdf:about=""><dc:format>image/svg+xml</dc:format><dc:type
           rdf:resource="http://purl.org/dc/dcmitype/StillImage" /><dc:title></dc:title></cc:Work></rdf:RDF></metadata><defs
     id="defs4148" /><sodipodi:namedview
     pagecolor="#ffffff"
     bordercolor="#666666"
     borderopacity="1"
     objecttolerance="10"
     gridtolerance="10"
     guidetolerance="10"
     inkscape:pageopacity="0"
     inkscape:pageshadow="2"
     inkscape:window-width="2560"
     inkscape:window-height="1377"
     id="namedview4146"
     showgrid="false"
     fit-margin-top="10"
     fit-margin-right="10"
     fit-margin-bottom="10"
     fit-margin-left="10"
     inkscape:zoom="9.664"
     inkscape:cx="55"
     inkscape:cy="54.917222"
     inkscape:window-x="-8"
     inkscape:window-y="-8"
     inkscape:window-maximized="1"
     inkscape:current-layer="svg4136" /><path
     d="m 82.5,50 c -0.851,0 -1.681,0.082 -2.5,0.2 L 80,22.5 C 80,14.294 62.393,10 45,10 27.607,10 10,14.294 10,22.5 l 0,60 c 0,8.206 17.607,12.5 35,12.5 1.67,0 3.342,-0.04 5,-0.119 l 0,2.619 c 0,1.381 1.119,2.5 2.5,2.5 l 15,0 c 1.381,0 2.5,-1.119 2.5,-2.5 l 0,-2.5 2.5,0 c 1.381,0 2.5,-1.119 2.5,-2.5 l 0,-2.5 2.5,0 c 1.381,0 2.5,-1.119 2.5,-2.5 l 0,-2.684 C 80.83,84.938 81.664,85 82.5,85 92.149,85 100,77.149 100,67.5 100,57.851 92.149,50 82.5,50 Z m 0,30 C 81.101,80 79.7,79.755 78.335,79.271 77.569,78.999 76.721,79.118 76.057,79.585 75.394,80.055 75,80.816 75,81.628 L 75,85 72.5,85 C 71.119,85 70,86.119 70,87.5 l 0,2.5 -2.5,0 C 66.119,90 65,91.119 65,92.5 l 0,2.5 -10,0 0,-3.965 15.603,-15.604 c 0.736,-0.735 0.939,-1.85 0.511,-2.797 C 70.375,71 70,69.272 70,67.5 70,60.607 75.607,55 82.5,55 89.393,55 95,60.607 95,67.5 95,74.393 89.393,80 82.5,80 Z M 65,67.5 c 0,0.095 0.01,0.188 0.011,0.282 C 59.974,69.06 53.187,70 45,70 26.39,70 15,65.145 15,62.5 L 15,49.259 C 21.46,53.046 33.275,55 45,55 56.725,55 68.54,53.046 75,49.259 l 0,2.453 C 69.098,54.528 65,60.537 65,67.5 Z m 10,-25 C 75,45.145 63.61,50 45,50 26.39,50 15,45.145 15,42.5 L 15,29.259 C 21.46,33.046 33.275,35 45,35 56.725,35 68.54,33.046 75,29.259 L 75,42.5 Z M 45,15 c 18.61,0 30,4.855 30,7.5 C 75,25.145 63.61,30 45,30 26.39,30 15,25.145 15,22.5 15,19.855 26.39,15 45,15 Z M 15,82.5 15,69.259 C 21.46,73.046 33.275,75 45,75 c 7.35,0 14.733,-0.77 20.815,-2.275 0.034,0.109 0.059,0.219 0.096,0.327 l -15.178,15.18 c -0.44,0.44 -0.69,1.028 -0.72,1.647 C 48.406,89.958 46.735,90 45,90 26.39,90 15,85.145 15,82.5 Z"
     id="path4138"
     inkscape:connector-curvature="0" /><path
     d="m 85,60 c -2.757,0 -5,2.243 -5,5 0,2.757 2.243,5 5,5 2.757,0 5,-2.243 5,-5 0,-2.757 -2.243,-5 -5,-5 z"
     id="path4140"
     inkscape:connector-curvature="0" /></svg>